<?xml version="1.0" standalone="no"?>
<!DOCTYPE svg PUBLIC "-//W3C//DTD SVG 20010904//EN"
 "http://www.w3.org/TR/2001/REC-SVG-20010904/DTD/svg10.dtd">
<svg version="1.0" xmlns="http://www.w3.org/2000/svg"
 width="200.000000pt" height="200.000000pt" viewBox="0 0 200.000000 200.000000"
 preserveAspectRatio="xMidYMid meet">
<metadata>
Created by potrace 1.11, written by Peter Selinger 2001-2013
</metadata>
<g transform="translate(0.000000,200.000000) scale(0.100000,-0.100000)"
fill="#000000" stroke="none">
<path d="M950 1969 c-30 -17 -77 -43 -105 -59 -27 -15 -108 -60 -180 -100 -71
-40 -146 -82 -165 -92 -19 -11 -48 -27 -65 -37 -29 -17 -123 -70 -175 -98 -14
-8 -43 -25 -65 -39 -22 -14 -48 -27 -58 -31 -16 -5 -17 -38 -17 -502 0 -273 4
-500 8 -506 4 -5 21 -17 37 -26 74 -38 120 -65 126 -72 3 -5 8 -7 10 -6 2 2
24 -9 49 -23 25 -14 151 -85 280 -157 129 -72 242 -136 250 -141 8 -6 29 -17
45 -26 17 -8 41 -21 53 -28 24 -14 62 -11 62 5 0 5 5 9 10 9 6 0 45 20 88 44
91 51 126 71 207 116 169 93 522 294 533 302 9 8 12 122 12 507 l0 496 -83 44
c-45 25 -84 47 -87 50 -3 3 -23 15 -45 27 -47 24 -67 36 -409 228 -143 80
-260 146 -260 146 -1 0 -26 -14 -56 -31z"/>
</g>
</svg>
