<?xml version="1.0" encoding="utf-8"?><svg width="302" height="182" viewBox="0 0 302 182" xmlns="http://www.w3.org/2000/svg" xmlns:xlink="http://www.w3.org/1999/xlink"><svg id="comment" data-name="Layer 1" width="66" height="66" viewBox="-1 -1 66 66" x="235.47"><defs><style>.acls-1{fill:#2f5572}</style></defs><title>comment</title><path class="acls-1" d="M.72.08A.67.67 0 0 0 0 .8v46.48a.72.72 0 0 0 .72.72H48l16 16V.72a.67.67 0 0 0-.72-.72H.8z"/></svg><svg viewBox="-1 -1 86 66" width="86" height="66" id="fire" y="66"><g transform="matrix(.18987 0 0 .2362 -1.332 -1.508)"><g fill="#699f63"><path d="M225.686 277.337a8.381 8.381 0 0 1-4.19-1.121l-13.34-7.892c-1.991-1.115-1.018-1.509-.362-1.738 2.658-.922 3.195-1.135 6.031-2.744.295-.166.687-.103.992.076l10.248 6.084c.372.206.896.206 1.238 0l39.953-23.061c.372-.212.61-.64.61-1.081v-46.108a1.29 1.29 0 0 0-.62-1.101L226.31 175.61a1.25 1.25 0 0 0-1.231 0l-39.927 23.047a1.285 1.285 0 0 0-.634 1.095v46.108c0 .441.245.859.63 1.068l10.945 6.324c5.938 2.969 9.574-.528 9.574-4.041v-45.524a1.15 1.15 0 0 1 1.161-1.151h5.066c.634 0 1.158.508 1.158 1.151v45.523c0 7.926-4.316 12.471-11.83 12.471-2.309 0-4.127 0-9.203-2.501l-10.477-6.031a8.438 8.438 0 0 1-4.19-7.289v-46.108c0-2.996 1.602-5.793 4.19-7.282l39.953-23.087c2.528-1.43 5.889-1.43 8.397 0l39.95 23.087a8.433 8.433 0 0 1 4.197 7.282v46.108a8.458 8.458 0 0 1-4.197 7.289l-39.95 23.067a8.385 8.385 0 0 1-4.206 1.121z"/><path d="M238.027 245.571c-17.483 0-21.146-8.025-21.146-14.756 0-.64.514-1.151 1.155-1.151h5.165c.577 0 1.058.415 1.148.979.78 5.258 3.105 7.912 13.678 7.912 8.417 0 12-1.904 12-6.37 0-2.574-1.015-4.485-14.096-5.766-10.931-1.081-17.693-3.497-17.693-12.242 0-8.062 6.794-12.869 18.187-12.869 12.799 0 19.132 4.442 19.935 13.974.03.328-.086.644-.305.889a1.177 1.177 0 0 1-.846.368h-5.185a1.151 1.151 0 0 1-1.121-.902c-1.244-5.534-4.27-7.302-12.477-7.302-9.19 0-10.258 3.202-10.258 5.6 0 2.906 1.261 3.752 13.669 5.394 12.278 1.622 18.11 3.921 18.11 12.551-.001 8.705-7.26 13.691-19.92 13.691z"/></g><path d="M295.638 197.216c0 4.237-3.464 7.7-7.7 7.7-4.197 0-7.7-3.422-7.7-7.7 0-4.359 3.586-7.702 7.7-7.702 4.157 0 7.7 3.342 7.7 7.702zm-14.156-.022c0 3.586 2.893 6.479 6.436 6.479 3.586 0 6.479-2.954 6.479-6.479 0-3.585-2.932-6.436-6.479-6.436-3.503 0-6.436 2.81-6.436 6.436zm3.563-4.298h2.976c1.018 0 3.016 0 3.016 2.283 0 1.589-1.018 1.914-1.632 2.118 1.184.082 1.264.856 1.426 1.956.083.692.206 1.875.448 2.281h-1.831c-.043-.406-.328-2.608-.328-2.729-.119-.49-.285-.733-.896-.733h-1.506v3.462h-1.672v-8.638h-.001zm1.632 3.789h1.344c1.098 0 1.304-.773 1.304-1.221 0-1.183-.816-1.183-1.264-1.183h-1.383l-.001 2.404z" fill="#699f63"/><path d="M101.964 96.943a5.111 5.111 0 0 0-2.558-4.446L57.047 68.119a5.004 5.004 0 0 0-2.332-.674h-.438a5.052 5.052 0 0 0-2.339.674L9.579 92.497a5.132 5.132 0 0 0-2.561 4.446l.093 65.641c0 .912.474 1.762 1.277 2.21a2.461 2.461 0 0 0 2.541 0l25.174-14.415c1.592-.945 2.561-2.614 2.561-4.439v-30.668a5.1 5.1 0 0 1 2.554-4.429l10.719-6.174a5.093 5.093 0 0 1 2.565-.687c.872 0 1.768.226 2.544.687l10.716 6.174a5.1 5.1 0 0 1 2.558 4.429v30.668c0 1.825.982 3.504 2.565 4.439l25.167 14.415c.79.471 1.775.471 2.558 0a2.556 2.556 0 0 0 1.271-2.21l.083-65.641zM305.781 6.708a2.564 2.564 0 0 0-2.543.028 2.561 2.561 0 0 0-1.262 2.206v65.006c0 .639-.342 1.231-.894 1.551-.554.32-1.238.32-1.792 0l-10.609-6.113a5.118 5.118 0 0 0-5.112.002l-42.376 24.455a5.115 5.115 0 0 0-2.559 4.431v48.921a5.12 5.12 0 0 0 2.558 4.432l42.374 24.474a5.121 5.121 0 0 0 5.119 0l42.38-24.474a5.12 5.12 0 0 0 2.558-4.432V25.248a5.118 5.118 0 0 0-2.624-4.469L305.781 6.708zm-3.932 124.414c0 .456-.244.879-.64 1.106l-14.549 8.387a1.282 1.282 0 0 1-1.277 0l-14.55-8.387a1.276 1.276 0 0 1-.64-1.106v-16.8c0-.456.244-.879.639-1.108l14.549-8.403a1.278 1.278 0 0 1 1.28 0l14.549 8.403c.395.229.639.652.639 1.108v16.8zM446.884 113.882a5.117 5.117 0 0 0 2.546-4.424V97.603c0-1.823-.97-3.51-2.548-4.426l-42.103-24.446a5.117 5.117 0 0 0-5.127-.007l-42.36 24.455a5.116 5.116 0 0 0-2.558 4.431v48.908c0 1.84.987 3.536 2.585 4.446l42.097 23.988a5.114 5.114 0 0 0 5.018.028l25.462-14.153a2.558 2.558 0 1 0 .031-4.455l-42.629-24.467a2.558 2.558 0 0 1-1.285-2.22v-15.327c0-.914.488-1.76 1.28-2.216l13.267-7.649a2.555 2.555 0 0 1 2.554 0l13.274 7.649a2.556 2.556 0 0 1 1.28 2.216v12.059a2.56 2.56 0 0 0 3.843 2.213l25.373-14.748z" fill="#333"/><path d="M401.591 111.591a.98.98 0 0 1 .982 0l8.131 4.691a.982.982 0 0 1 .491.851v9.389a.982.982 0 0 1-.491.851l-8.131 4.691a.98.98 0 0 1-.982 0l-8.125-4.691a.982.982 0 0 1-.491-.851v-9.389c0-.352.187-.675.491-.851l8.125-4.691z" fill="#699f63"/><g><linearGradient gradientTransform="matrix(1 0 0 -1 0 284.11)" gradientUnits="userSpaceOnUse" id="ba" x1="123.196" x2="217.4" y1="162.196" y2="162.196"><stop offset=".005"/><stop offset=".194" stop-color="#171717"/><stop offset=".542" stop-color="#3d3d3d"/><stop offset=".824" stop-color="#545454"/><stop offset="1" stop-color="#5c5c5c"/></linearGradient><path d="M167.756 68.979a5.073 5.073 0 0 1 5.075 0l42.03 24.255a5.074 5.074 0 0 1 2.539 4.397v48.546a5.079 5.079 0 0 1-2.538 4.397l-42.03 24.274a5.078 5.078 0 0 1-5.078 0l-42.021-24.274a5.079 5.079 0 0 1-2.537-4.397V97.629c0-1.813.968-3.489 2.539-4.395l42.021-24.255z" fill="url(#ba)"/><defs><path d="M172.841 68.979a5.073 5.073 0 0 0-5.075 0l-42.03 24.255a5.074 5.074 0 0 0-2.539 4.397v48.546a5.08 5.08 0 0 0 2.538 4.397l42.03 24.274a5.078 5.078 0 0 0 5.078 0l42.021-24.274a5.079 5.079 0 0 0 2.537-4.397V97.629a5.072 5.072 0 0 0-2.539-4.395l-42.021-24.255z" id="bb"/></defs><clipPath id="bc"><use overflow="visible" xlink:href="#bb" width="100%" height="100%"/></clipPath><g clip-path="url(#bc)"><path d="M167.707 68.979l-42.07 24.255c-1.571.907-2.637 2.582-2.637 4.395v48.548c0 1.178.444 2.293 1.182 3.182l47.297-80.907a5.111 5.111 0 0 0-3.772.527zM171.746 175.275c.337-.109.669-.245.986-.428l41.93-24.274c1.57-.908 2.337-2.583 2.337-4.397V97.63c0-1.218-.36-2.367-1.066-3.269l-44.187 80.914z" fill="none"/><path d="M214.649 93.233l-41.843-24.255a5.058 5.058 0 0 0-1.327-.527l-47.297 80.907c.398.48.878.896 1.428 1.214l42.094 24.274a4.972 4.972 0 0 0 4.042.428l44.188-80.914a4.475 4.475 0 0 0-1.285-1.127z" opacity=".66" fill="#b4b4b4"/></g><g><defs><path d="M172.841 68.979a5.073 5.073 0 0 0-5.075 0l-42.03 24.255a5.074 5.074 0 0 0-2.539 4.397v48.546a5.08 5.08 0 0 0 2.538 4.397l42.03 24.274a5.078 5.078 0 0 0 5.078 0l42.021-24.274a5.079 5.079 0 0 0 2.537-4.397V97.629a5.072 5.072 0 0 0-2.539-4.395l-42.021-24.255z" id="bd"/></defs><clipPath id="be"><use overflow="visible" xlink:href="#bd" width="100%" height="100%"/></clipPath><g clip-path="url(#be)"><path d="M126.114 92.958l-.477.275c-1.571.907-2.637 2.582-2.637 4.395v48.548c0 1.813 1.041 3.489 2.61 4.397l42.094 24.274a4.979 4.979 0 0 0 3.656.539l-45.246-82.428zM217 97.63c0-1.815-.78-3.49-2.351-4.397l-41.843-24.255a5.042 5.042 0 0 0-1.166-.486L217 145.986V97.63z" fill="none"/><linearGradient gradientTransform="matrix(1 0 0 -1 0 284.11)" gradientUnits="userSpaceOnUse" id="bf" x1="122.545" x2="219.723" y1="162.266" y2="162.266"><stop offset="0" stop-color="#5c5c5c"/><stop offset=".176" stop-color="#545454"/><stop offset=".458" stop-color="#3d3d3d"/><stop offset=".806" stop-color="#171717"/><stop offset=".995"/></linearGradient><path d="M172.732 174.847l41.93-24.274c1.57-.908 2.337-2.583 2.337-4.397v-.19l-45.36-77.493a5.119 5.119 0 0 0-3.933.486l-41.593 23.98 45.246 82.428a5.084 5.084 0 0 0 1.373-.54z" fill="url(#bf)"/></g></g></g></g></svg><svg width="82" height="66" viewBox="-1 -1 18.38 15.11" id="globe" x="153.47"><g transform="matrix(.03204 0 0 .08995 0 -.03)" fill="none" fill-rule="evenodd"><path d="M476.713 60.463c-.46.092-.922 1.107-.922 1.66-.092 3.692-.184 13.474-.184 20.118 0 .185.276.554.553.554 1.384.092 4.706.184 7.567.184 3.968 0 6.275-.553 7.568-1.106 3.321-1.662 4.89-5.261 4.89-9.23 0-8.95-6.275-12.365-15.596-12.365-.646-.092-2.49-.092-3.876.185zm23.81 41.25c0-9.136-6.737-14.212-18.918-14.212-.554 0-4.43-.092-5.353.092-.277.093-.645.278-.645.555 0 6.551-.093 16.98.184 21.04.184 1.753 1.477 4.245 3.046 4.983 1.66.923 5.444 1.107 8.028 1.107 7.29 0 13.658-4.06 13.658-13.565zm-42.634-46.325c.922 0 3.69.276 10.796.276 6.737 0 12.089-.184 18.641-.184 8.028 0 19.102 2.86 19.102 14.857 0 5.906-4.153 10.613-9.597 12.92-.276.092-.276.276 0 .368 7.751 1.939 14.581 6.737 14.581 15.78 0 8.86-5.537 14.489-13.566 17.996-4.891 2.122-10.981 2.86-17.164 2.86-4.707 0-17.349-.553-24.362-.368-.738-.278.646-3.6 1.291-4.153 1.662-.093 2.953-.185 4.707-.739 2.492-.645 2.768-1.384 3.137-5.167.185-3.23.185-14.674.185-22.794 0-11.166.093-18.733 0-22.424-.092-2.86-1.107-3.784-3.137-4.338-1.57-.276-4.153-.646-6.276-.922-.462-.462 1.107-3.6 1.662-3.968zm-53.248 57.399c2.216 1.752 6.553 2.49 10.429 2.49 4.983 0 9.966-.921 14.765-5.26 4.891-4.428 8.305-11.257 8.305-22.146 0-10.429-3.968-18.919-12.089-23.901-4.614-2.862-10.52-4.06-17.349-4.06-2.03 0-3.968.092-5.167.645-.278.185-.923 1.015-.923 1.476-.185 1.846-.185 16.057-.185 24.363 0 8.582 0 20.579.185 21.963 0 1.385.645 3.507 2.03 4.43zm-20.948-57.4c1.754 0 8.49.277 11.72.277 5.815 0 9.967-.276 20.948-.276 9.228 0 16.98 2.491 22.517 7.197 6.736 5.814 10.244 13.843 10.244 23.624 0 13.935-6.368 21.964-12.736 26.578-6.366 4.706-14.672 7.474-26.484 7.474-6.275 0-17.072-.184-26.024-.277h-.092c-.461-.83.738-4.06 1.476-4.152 2.4-.277 3.046-.37 4.246-.83 1.937-.739 2.307-1.754 2.584-5.168.276-6.368.184-14.027.184-22.702 0-6.182.092-18.272-.093-22.148-.276-3.229-1.66-4.06-4.429-4.614-1.384-.276-3.23-.646-5.813-.922-.37-.647 1.291-3.507 1.752-4.06z" fill="#8e714e"/><path d="M272.033 116.385c-2.307-.277-3.968-.645-5.998-1.568-.277-.185-.739-1.107-.739-1.477-.184-3.23-.184-12.458-.184-18.64 0-4.984-.83-9.321-2.953-12.366-2.492-3.508-6.09-5.537-10.705-5.537-4.06 0-9.505 2.768-14.027 6.644-.092.092-.83.739-.738-.277 0-1.015.185-3.045.277-4.43.093-1.292-.646-1.937-.646-1.937-2.953 1.476-11.258 3.414-14.304 3.69-2.214.463-2.768 2.585-.46 3.323h.092c2.49.738 4.152 1.569 5.443 2.4.923.738.831 1.753.831 2.584.092 6.92.092 17.533-.184 23.347-.092 2.307-.738 3.137-2.4 3.506l.185-.092c-1.292.277-2.307.553-3.876.738-.554.554-.554 3.507 0 4.153 1.015 0 6.367-.277 10.798-.277 6.09 0 9.228.277 10.796.277.646-.738.831-3.507.462-4.153-1.754-.092-3.046-.276-4.245-.646-1.661-.37-2.123-1.199-2.216-3.137-.183-4.892-.183-15.227-.183-22.24 0-1.938.553-2.861 1.106-3.415 2.123-1.845 5.538-3.137 8.583-3.137 2.953 0 4.89.923 6.367 2.123 2.03 1.66 2.676 4.06 2.953 5.813.461 3.968.277 11.812.277 18.641 0 3.691-.277 4.614-1.66 5.075-.647.277-2.308.647-4.246.83-.646.647-.461 3.508 0 4.154 2.676 0 5.814-.277 10.428-.277 5.721 0 9.413.277 10.89.277.46-.554.645-3.23.276-3.969zm25.562-35.25c-4.89 0-7.936 3.783-7.936 9.688 0 5.999 2.676 12.92 10.243 12.92 1.292 0 3.692-.554 4.798-1.846 1.754-1.66 2.954-4.983 2.954-8.49 0-7.659-3.784-12.273-10.059-12.273zm-.646 40.787c-1.845 0-3.138.554-3.968 1.016-3.876 2.49-5.629 4.89-5.629 7.752 0 2.675 1.015 4.797 3.23 6.643 2.676 2.307 6.367 3.415 11.073 3.415 9.413 0 13.566-5.076 13.566-10.058 0-3.508-1.754-5.815-5.352-7.106-2.584-1.108-7.29-1.662-12.92-1.662zm.646 23.994c-5.629 0-9.69-1.2-13.196-3.876-3.415-2.584-4.891-6.46-4.891-9.136 0-.738.185-2.769 1.846-4.614 1.014-1.108 3.23-3.23 8.49-6.829.184-.092.276-.184.276-.37 0-.184-.185-.369-.369-.46-4.337-1.661-5.629-4.338-5.999-5.814v-.185c-.091-.554-.276-1.107.555-1.661.646-.461 1.569-1.015 2.583-1.66 1.569-.924 3.23-1.939 4.245-2.77.185-.184.185-.368.185-.553 0-.185-.185-.37-.37-.461-6.458-2.123-9.688-6.922-9.688-14.12 0-4.706 2.122-8.951 5.905-11.627 2.584-2.03 9.044-4.522 13.289-4.522h.277c4.337.092 6.736 1.015 10.15 2.215 1.846.646 3.6.922 6 .922 3.598 0 5.167-1.107 6.458-2.398.093.184.278.646.37 1.845.092 1.2-.277 2.953-1.2 4.245-.738 1.015-2.399 1.754-4.06 1.754h-.462c-1.661-.185-2.4-.37-2.4-.37l-.368.185c-.092.185 0 .369.092.646l.093.185c.184.83.553 3.321.553 3.968 0 7.567-3.045 10.888-6.275 13.38-3.138 2.307-6.736 3.783-10.797 4.153-.092 0-.46 0-1.292.092-.461 0-1.107.093-1.2.093h-.092c-.738.184-2.583 1.107-2.583 2.675 0 1.384.83 3.046 4.798 3.323.83.092 1.66.092 2.584.185 5.26.368 11.812.83 14.857 1.845 4.245 1.568 6.921 5.352 6.921 9.874 0 6.83-4.89 13.197-13.011 17.164-3.968 1.754-7.937 2.677-12.274 2.677zm52.6-64.32c-1.937 0-3.691.46-4.983 1.383-3.598 2.215-5.444 6.645-5.444 13.104 0 12.09 6.09 20.58 14.765 20.58 2.584 0 4.614-.739 6.367-2.215 2.676-2.216 4.061-6.645 4.061-12.828 0-11.996-5.999-20.025-14.765-20.025zm1.662 39.496c-15.688 0-21.317-11.535-21.317-22.332 0-7.567 3.045-13.381 9.135-17.534 4.338-2.676 9.506-4.152 14.12-4.152 11.996 0 20.394 8.582 20.394 20.948 0 8.397-3.322 15.041-9.69 19.102-3.045 2.03-8.305 3.968-12.643 3.968h.001zM187.411 81.595c-1.938 0-3.691.461-4.984 1.384-3.598 2.215-5.444 6.645-5.444 13.104 0 12.09 6.09 20.58 14.765 20.58 2.584 0 4.614-.739 6.368-2.215 2.675-2.216 4.06-6.645 4.06-12.828 0-11.996-5.906-20.025-14.765-20.025zm1.661 39.497c-15.688 0-21.317-11.535-21.317-22.332 0-7.567 3.045-13.381 9.135-17.534 4.338-2.676 9.506-4.152 14.12-4.152 11.997 0 20.394 8.582 20.394 20.948 0 8.397-3.322 15.041-9.69 19.102-2.953 2.03-8.213 3.968-12.642 3.968zm-105.478-.923c-.185-.276-.37-1.107-.277-2.122 0-.739.185-1.2.277-1.384 1.938-.278 2.953-.555 4.06-.831 1.846-.462 2.584-1.476 2.676-3.783.278-5.537.278-16.058.185-23.348v-.185c0-.83 0-1.846-1.015-2.584-1.477-.922-3.23-1.752-5.537-2.4-.83-.275-1.384-.737-1.292-1.29 0-.554.554-1.2 1.754-1.385 3.045-.277 10.98-2.214 14.118-3.599.185.184.462.739.462 1.477l-.092 1.014c-.093 1.016-.185 2.216-.185 3.415 0 .369.37.646.738.646.185 0 .37-.092.554-.185 5.906-4.614 11.258-6.275 14.026-6.275 4.523 0 8.03 2.123 10.706 6.552.184.278.369.37.646.37.184 0 .46-.092.553-.277 5.445-4.153 10.89-6.645 14.488-6.645 8.582 0 13.658 6.368 13.658 17.165 0 3.045 0 7.013-.092 10.613 0 3.229-.092 6.182-.092 8.305 0 .46.645 1.937 1.66 2.214 1.292.646 3.046.923 5.353 1.292h.092c.185.646-.184 3.045-.553 3.507-.554 0-1.385 0-2.307-.092" fill="#442d22"/><path d="M35.053 142.317l-3.783-1.293s.462-19.286-6.46-20.67c-4.613-5.353.74-227.013 17.35-.739 0 0-5.722 2.86-6.737 7.752-1.108 4.799-.37 14.95-.37 14.95z" fill="#fff"/><path d="M35.053 142.317l-3.783-1.293s.462-19.286-6.46-20.67c-4.613-5.353.74-227.013 17.35-.739 0 0-5.722 2.86-6.737 7.752-1.108 4.799-.37 14.95-.37 14.95z" fill="#a6a385"/><path d="M37.084 123.676s33.13-21.779 25.377-67.09c-7.474-32.943-25.1-43.74-27.038-47.893C33.301 5.74 31.27.573 31.27.573l1.385 91.634c0 .093-2.861 28.054 4.43 31.47" fill="#fff"/><path d="M37.084 123.676s33.13-21.779 25.377-67.09c-7.474-32.943-25.1-43.74-27.038-47.893C33.301 5.74 31.27.573 31.27.573l1.385 91.634c0 .093-2.861 28.054 4.43 31.47" fill="#499d4a"/><path d="M29.333 124.875S-1.767 103.65.079 66.277C1.832 28.903 23.795 10.539 28.04 7.217c2.769-2.953 2.861-4.061 3.046-7.014 1.938 4.153 1.569 62.106 1.845 68.934.83 26.3-1.476 50.756-3.598 55.738z" fill="#fff"/><path d="M29.333 124.875S-1.767 103.65.079 66.277C1.832 28.903 23.795 10.539 28.04 7.217c2.769-2.953 2.861-4.061 3.046-7.014 1.938 4.153 1.569 62.106 1.845 68.934.83 26.3-1.476 50.756-3.598 55.738z" fill="#58aa50"/></g></svg><svg id="instagram" data-name="Layer 1" width="44.01" height="44.01" viewBox="-1 -1 44.01 44.01" x="118.12" y="132"><defs><style>.dcls-1{fill:#fff}</style></defs><title>instagram</title><path class="dcls-1" d="M37.25 35.49V17.77h-3.69a11.77 11.77 0 0 1 .57 3.58 12.12 12.12 0 0 1-1.75 6.36 12.76 12.76 0 0 1-4.76 4.59 13.13 13.13 0 0 1-6.56 1.7 12.78 12.78 0 0 1-9.19-3.71 12 12 0 0 1-3.83-9 11.77 11.77 0 0 1 .49-3.56H4.68v17.76a1.63 1.63 0 0 0 1.6 1.67h29.3a1.63 1.63 0 0 0 1.17-.47 1.59 1.59 0 0 0 .5-1.2zm-7.77-14.57A7.75 7.75 0 0 0 27 15.14a8.28 8.28 0 0 0-6-2.4 8.25 8.25 0 0 0-5.91 2.39 7.75 7.75 0 0 0-2.47 5.78 7.75 7.75 0 0 0 2.47 5.79A8.25 8.25 0 0 0 21 29.1a8.28 8.28 0 0 0 6-2.4 7.75 7.75 0 0 0 2.48-5.78zm7.76-9.84V6.56a1.84 1.84 0 0 0-.54-1.31 1.8 1.8 0 0 0-1.31-.56h-4.78a1.8 1.8 0 0 0-1.31.56 1.84 1.84 0 0 0-.54 1.31v4.52A1.87 1.87 0 0 0 30.6 13h4.8a1.87 1.87 0 0 0 1.85-1.89zM42 5.39v31.23A5.41 5.41 0 0 1 36.62 42H5.39a5.19 5.19 0 0 1-3.8-1.59A5.19 5.19 0 0 1 0 36.62V5.39a5.19 5.19 0 0 1 1.59-3.8A5.19 5.19 0 0 1 5.39 0h31.23a5.19 5.19 0 0 1 3.8 1.59A5.19 5.19 0 0 1 42 5.39z"/></svg><svg width="52.12" height="49.89" viewBox="-1 -1 52.12 49.89" id="linkedin" x="66" y="132"><path d="M50.117 29.361V47.89H39.375V30.602c0-4.343-1.553-7.306-5.442-7.306-2.968 0-4.734 1.997-5.511 3.929-.283.69-.356 1.652-.356 2.619V47.89H17.32s.145-29.28 0-32.313h10.745v4.58c-.022.034-.05.071-.071.104h.07v-.104c1.428-2.199 3.977-5.34 9.684-5.34 7.07 0 12.369 4.619 12.369 14.544zM6.08 0C2.404 0 0 2.411 0 5.582c0 3.101 2.335 5.586 5.938 5.586h.071c3.748 0 6.078-2.484 6.078-5.586C12.017 2.412 9.757 0 6.08 0zM.638 47.89H11.38V15.577H.64V47.89z"/><path d="M.748 31.731V15.676H11.36v32.11H.748V31.731zM17.424 31.731V15.676h10.624l-.04 2.343c-.023 1.289-.005 2.343.04 2.343.044 0 .145-.142.224-.315.254-.558 1.54-2.064 2.338-2.739 2.173-1.837 5.35-2.711 8.53-2.346 1.806.207 2.79.473 4.123 1.112 3.529 1.692 5.538 4.597 6.492 9.387.203 1.022.24 2.522.29 11.748l.059 10.577h-10.63v-8.858c0-5.254-.058-9.333-.143-10.026-.38-3.112-1.551-4.796-3.79-5.447-1.052-.306-2.73-.214-3.829.208-1.173.451-2.432 1.678-3.092 3.013l-.516 1.044-.039 10.033-.038 10.033H17.424V31.731zM4.883 11.033c-.74-.124-1.752-.506-2.374-.897C1.641 9.59 1.072 8.917.556 7.827.168 7.01.129 6.804.136 5.616c.012-1.643.349-2.583 1.299-3.623C2.697.612 4.26.033 6.47.132 7.668.185 8 .255 8.778.619c1.722.806 2.804 2.222 3.16 4.136.402 2.166-.745 4.493-2.755 5.587-1.127.613-2.984.912-4.3.691z" fill="#fff" stroke="#fff" stroke-width=".138"/></svg><svg id="mail" data-name="Layer 1" width="66" height="50" viewBox="-1 -1 66 50" y="132"><defs><style>.fcls-1{fill:#2f5572}</style></defs><title>mail</title><path class="fcls-1" d="M0 0v8l32 16L64 8V0H0zm0 16v32h64V16L32 32z"/></svg><svg width="153.47" height="66" viewBox="-1 -1 144 62" id="mr-henderson-portfolio"><g transform="translate(-158.691 -897.134)"><flowRoot xml:space="preserve" style="line-height:108.00000429%;-inkscape-font-specification:'Arial Black, ';text-align:center" transform="translate(156.11 901.834)" font-style="normal" font-variant="normal" font-weight="400" font-stretch="normal" font-size="25.569" font-family="Arial Black" letter-spacing="0" word-spacing="0" writing-mode="lr-tb" text-anchor="middle" fill="#000" fill-opacity="1" stroke="none" stroke-width="1" stroke-linecap="butt" stroke-linejoin="miter" stroke-opacity="1"><flowRegion><path style="-inkscape-font-specification:'Arial Black, '" d="M-68.571-6.429h230v74.286h-230z"/></flowRegion><flowPara/></flowRoot><g font-weight="400" font-family="Arial Black" letter-spacing="0" word-spacing="0" text-anchor="middle"><text style="line-height:108.00000429%;-inkscape-font-specification:'Arial Black, ';text-align:center" x="280.011" y="754.999" transform="scale(.81984 1.21976)" font-size="25.662"><tspan x="280.011" y="754.999" style="-inkscape-font-specification:sans-serif" font-family="sans-serif">Mr.Henderson</tspan></text><text style="line-height:108.00000429%;-inkscape-font-specification:'Arial Black, ';text-align:center" x="269.464" y="812.808" transform="scale(.84965 1.17696)" font-size="35.634"><tspan x="269.464" y="812.808">Portfolio</tspan></text></g></g></svg><svg height="66" viewBox="-1 -1 66 66" width="66" id="rain" x="235.47" y="66"><g transform="scale(.125)"><path fill="#67a969" d="M0 512h512V0H0v512"/><path d="M93.801 109.799H107v23.402c0 4.91-.438 8.65-1.312 11.21-.875 2.563-2.634 4.734-5.283 6.516-2.646 1.783-6.036 2.673-10.167 2.673-4.369 0-7.753-.582-10.153-1.748-2.401-1.166-4.255-2.869-5.564-5.109-1.309-2.24-2.083-5.012-2.32-8.311l13.199-1.633c.019 1.79.182 3.115.489 3.981a4.294 4.294 0 0 0 1.555 2.095c.5.351 1.211.525 2.129.525 1.456 0 2.524-.549 3.205-1.649.682-1.103 1.023-2.954 1.023-5.561v-26.391M134.301 138.6a53.876 53.876 0 0 1-4.876 1.474c-2.305.612-3.765 1.215-4.377 1.809-.631.61-.947 1.309-.947 2.09 0 .889.311 1.613.932 2.18.623.565 1.535.849 2.743.849a7.071 7.071 0 0 0 3.529-.919c1.084-.612 1.854-1.36 2.31-2.241.458-.88.686-2.025.686-3.431V138.6m-9-6l-12-1.199c.424-2.118 1.037-3.789 1.837-5.007.8-1.219 1.952-2.274 3.459-3.168 1.081-.646 2.567-1.143 4.458-1.496 1.89-.354 3.937-.528 6.136-.528 3.531 0 6.368.199 8.512.598 2.145.402 3.928 1.235 5.353 2.503 1.005.884 1.799 2.128 2.376 3.737.578 1.609.868 3.146.868 4.607v13.734c0 1.463.092 2.609.276 3.44.184.832.59 1.891 1.215 3.179h-11.476c-.461-.813-.764-1.432-.904-1.856-.141-.426-.28-1.094-.417-2.006-1.53 1.487-3.053 2.55-4.565 3.188-2.069.85-4.473 1.274-7.209 1.274-3.637 0-6.4-.839-8.288-2.521s-2.831-3.754-2.831-6.217c0-2.313.677-4.214 2.034-5.7 1.356-1.492 3.862-2.603 7.518-3.328 4.375-.874 7.213-1.488 8.513-1.842a39.56 39.56 0 0 0 4.134-1.393c0-1.33-.266-2.264-.793-2.798-.528-.535-1.453-.802-2.779-.802-1.701 0-2.975.308-3.825.919-.661.476-1.196 1.37-1.602 2.682zM148.399 121.799h12.283l6.018 19.773 5.982-19.773H185L171.772 153h-10.538l-12.835-31.201M209.602 138.6a53.876 53.876 0 0 1-4.876 1.474c-2.305.612-3.765 1.215-4.376 1.809-.631.61-.948 1.309-.948 2.09 0 .889.311 1.613.932 2.18.623.565 1.537.849 2.743.849a7.075 7.075 0 0 0 3.53-.919c1.084-.612 1.854-1.36 2.312-2.241.456-.88.684-2.025.684-3.431V138.6m-9.001-6l-12-1.199c.425-2.118 1.037-3.789 1.837-5.007.8-1.219 1.952-2.274 3.458-3.168 1.082-.646 2.568-1.143 4.459-1.496 1.89-.354 3.936-.528 6.136-.528 3.53 0 6.368.199 8.512.598 2.144.402 3.929 1.235 5.354 2.503 1.006.884 1.799 2.128 2.376 3.737.579 1.609.868 3.146.868 4.607v13.734c0 1.463.092 2.609.276 3.44.183.832.589 1.891 1.214 3.179h-11.477c-.46-.813-.764-1.432-.904-1.856-.141-.426-.279-1.094-.417-2.006-1.53 1.487-3.053 2.55-4.566 3.188-2.069.85-4.472 1.274-7.209 1.274-3.637 0-6.4-.839-8.289-2.521-1.888-1.682-2.831-3.754-2.831-6.217 0-2.313.678-4.214 2.036-5.7 1.355-1.492 3.861-2.603 7.517-3.328 4.376-.874 7.214-1.488 8.514-1.842 1.3-.354 2.677-.817 4.135-1.393 0-1.33-.266-2.264-.793-2.798-.529-.535-1.454-.802-2.779-.802-1.7 0-2.975.308-3.825.919-.663.476-1.198 1.37-1.602 2.682zM246.802 138.779L260 138c.258 2.026.778 3.565 1.566 4.621 1.283 1.719 3.112 2.58 5.494 2.58 1.774 0 3.143-.448 4.101-1.347.96-.896 1.439-1.936 1.439-3.116 0-1.119-.425-2.121-1.274-3.01-.857-.889-3.053-1.727-6.592-2.513-5.793-1.319-9.924-3.06-12.394-5.222-2.492-2.164-3.739-4.915-3.739-8.26 0-2.206.641-4.288 1.921-6.244 1.282-1.957 3.208-3.492 5.779-4.611 2.573-1.118 6.099-1.678 10.581-1.678 5.493 0 9.683 1.034 12.566 3.106 2.885 2.072 4.602 5.37 5.151 9.896l-13.198.798c-.288-2.094-.89-3.618-1.806-4.57-.916-.954-2.179-1.43-3.791-1.43-1.326 0-2.326.329-2.998.989a3.25 3.25 0 0 0-1.005 2.404c0 .688.155 1.31.467 1.866.301.567 1.619 1.1 3.957 1.595 5.774 1.255 9.912 2.525 12.413 3.81 2.499 1.284 4.319 2.879 5.455 4.781 1.138 1.902 1.708 4.033 1.708 6.389 0 2.763-.763 5.312-2.288 7.645-1.525 2.336-3.657 4.104-6.394 5.313-2.738 1.207-6.188 1.809-10.351 1.809-7.313 0-12.376-1.394-15.191-4.185-2.816-2.792-4.408-6.337-4.775-10.637M314.601 141l12 1.201c-.624 2.325-1.651 4.336-3.079 6.031-1.428 1.697-3.25 3.015-5.465 3.958-2.217.94-5.035 1.409-8.463 1.409-3.299 0-6.049-.306-8.251-.919-2.199-.611-4.09-1.604-5.671-2.976a15.112 15.112 0 0 1-3.722-4.828c-.899-1.849-1.35-4.297-1.35-7.346 0-3.188.548-5.842 1.642-7.959.799-1.557 1.896-2.952 3.286-4.187 1.389-1.234 2.815-2.155 4.279-2.761 2.33-.95 5.313-1.424 8.943-1.424 5.088 0 8.966.864 11.636 2.596 2.668 1.731 4.537 4.267 5.613 7.604l-12 1.801c-.324-1.389-.917-2.436-1.78-3.142s-2.019-1.06-3.469-1.06c-1.832 0-3.313.728-4.449 2.18-1.134 1.454-1.701 3.651-1.701 6.595 0 2.626.568 4.619 1.707 5.981 1.137 1.363 2.587 2.043 4.351 2.043 1.467 0 2.701-.39 3.701-1.175s1.749-1.991 2.242-3.622M332 121.799h11.176v5.363c1.082-2.269 2.196-3.828 3.349-4.684 1.147-.853 2.569-1.277 4.263-1.277 1.77 0 3.708.527 5.813 1.583l-3.722 8.879c-1.418-.574-2.54-.864-3.365-.864-1.57 0-2.788.636-3.657 1.904-1.236 1.787-1.856 5.131-1.856 10.031V153h-12v-31.201M359 121.799h12V153h-12v-31.201m0-12h12v8.402h-12v-8.402zM390.116 137.578c0 2.786.515 4.855 1.537 6.202 1.024 1.346 2.323 2.019 3.891 2.019 1.38 0 2.537-.646 3.464-1.938.929-1.295 1.394-3.485 1.394-6.572 0-2.851-.484-4.944-1.453-6.282-.97-1.336-2.151-2.006-3.544-2.006-1.514 0-2.771.673-3.779 2.021-1.006 1.345-1.51 3.532-1.51 6.556M378.201 165v-43.201h11.128v4.107c1.544-1.719 2.959-2.88 4.247-3.486 1.736-.813 3.658-1.219 5.765-1.219 4.157 0 7.372 1.584 9.647 4.757 2.274 3.173 3.413 7.092 3.413 11.76 0 5.157-1.24 9.092-3.717 11.809-2.479 2.716-5.615 4.073-9.409 4.073-1.831 0-3.502-.272-5.016-.819a12.128 12.128 0 0 1-4.059-2.443V165h-11.999zM432.802 109.799v12h6.6v9h-6.6v11.29c0 1.355.13 2.251.394 2.69.398.681 1.102 1.02 2.11 1.02.906 0 2.17-.258 3.797-.777l.897 7.688c-2.987.592-5.777.89-8.369.89-3.008 0-5.225-.374-6.648-1.126-1.426-.747-2.479-1.891-3.16-3.426-.683-1.533-1.021-4.014-1.021-7.439v-10.81h-4.201v-9h4.201v-5.793l12-6.207" fill="#fff"/><path d="M512 364.931C473.734 325.406 350 201 350 201H170l-20 167 147 144h215V364.931" opacity=".191" fill="#010101"/><path fill="#fff" d="M306.814 266.761l35.54.176-2.965 23.954-1.628 12.881-7.967 64.216L235.777 400l-86.037-32.012 5.256-42.682h35.567l-2.139 17.59 52.016 19.324 56.9-19.324 4.997-40.296H192.923l-35.538-.176 2.966-23.952 1.628-12.883 7.966-64.215 94.019-32.012L350 201.374l-5.255 42.683h-35.57l2.14-17.594L259.3 207.14l-56.902 19.323-4.997 40.298h109.413"/></g></svg><svg id="star" data-name="Layer 1" width="66" height="66" viewBox="-1 -1 66 66" x="86" y="66"><defs><style>.icls-1{fill:#d4953f}</style></defs><title>star</title><path class="icls-1" d="M32 0l-8 24H0l20 16-8 24 20-16 20 16-8-24 20-16H40z"/></svg><svg id="twitter" data-name="Layer 1" width="53.78" height="44.06" viewBox="-1 -1 53.78 44.06" x="235.47" y="132"><defs><style>.jcls-1{fill:#fff}</style></defs><title>twitter</title><path class="jcls-1" d="M51.78 5a22.23 22.23 0 0 1-5.32 5.52v1.38a30.15 30.15 0 0 1-1.25 8.53 30.81 30.81 0 0 1-3.76 8.13 32.1 32.1 0 0 1-6.06 6.92 27 27 0 0 1-8.48 4.8 31 31 0 0 1-10.62 1.8A29.47 29.47 0 0 1 0 37.29a22.71 22.71 0 0 0 2.56.13 20.78 20.78 0 0 0 13.17-4.53 10.63 10.63 0 0 1-9.92-7.36 13.45 13.45 0 0 0 2 .16 11 11 0 0 0 2.79-.36 10.44 10.44 0 0 1-6.09-3.67 10.25 10.25 0 0 1-2.41-6.75v-.13a10.52 10.52 0 0 0 4.8 1.34 10.6 10.6 0 0 1-3.45-3.78 10.34 10.34 0 0 1-1.28-5.07 10.4 10.4 0 0 1 1.45-5.33 30.08 30.08 0 0 0 9.71 7.83A29.57 29.57 0 0 0 25.53 13a11.79 11.79 0 0 1-.26-2.43 10.23 10.23 0 0 1 3-7.48 10.64 10.64 0 0 1 15 0l.21.22A20.81 20.81 0 0 0 50.33.8a10.3 10.3 0 0 1-4.67 5.85A21.14 21.14 0 0 0 51.78 5z"/></svg><svg width="82" height="66" viewBox="-1 -1 82 66" id="wifi" x="153.47" y="66"><g transform="translate(-504.391 -490.626)"><g transform="matrix(.1011 0 0 .125 496.846 490.626)"><path fill="#264de4" d="M437.367 100.62l-33.046 370.199L255.778 512l-148.134-41.123L74.633 100.62z"/><path fill="#2965f1" d="M376.03 447.246l28.24-316.352H256v349.629z"/><path fill="#ebebeb" d="M150.31 268.217l4.07 45.41H256v-45.41zM256 176.305H142.132l4.128 45.411H256zM256 433.399v-47.246l-.199.053-50.574-13.656-3.233-36.217h-45.585l6.362 71.301 93.02 25.823z"/><path d="M160 0h55v23h-32v23h32v23h-55zM226 0h55v20h-32v4h32v46h-55V49h32v-4h-32zM292 0h55v20h-32v4h32v46h-55V49h32v-4h-32z"/><path fill="#fff" d="M311.761 313.627l-5.271 58.894-50.647 13.67v47.244l93.094-25.801.683-7.672 10.671-119.551 1.108-12.194 8.198-91.912H255.843v45.411h63.988l-4.132 46.501h-59.856v45.41z"/></g><g transform="matrix(.1011 0 0 .125 540.174 490.626)"><path fill="#e44d26" d="M107.644 470.877L74.633 100.62h362.734l-33.046 370.199L255.778 512z"/><path fill="#f16529" d="M256 480.523l120.03-33.277 28.24-316.352H256z"/><path fill="#ebebeb" d="M256 268.217h-60.09l-4.15-46.501H256v-45.411H142.132l1.087 12.183 11.161 125.139H256zM205.227 372.55l-3.233-36.217h-45.585l6.362 71.301 93.02 25.823.209-.058v-47.246l-.199.053z"/><path d="M108.382 0h23.077v22.8h21.11V0h23.078v69.044H152.57v-23.12h-21.11v23.12h-23.077V0zM205.994 22.896h-20.316V0h63.72v22.896h-20.325v46.148h-23.078V22.896zM259.511 0h24.063l14.802 24.26L313.163 0h24.072v69.044h-22.982V34.822l-15.877 24.549h-.397l-15.888-24.549v34.222h-22.58V0zM348.72 0h23.084v46.222h32.453v22.822H348.72V0z"/><path fill="#fff" d="M361.399 268.217H255.843v45.41h55.918l-5.271 58.894-50.647 13.67v47.244l93.094-25.801.683-7.672 10.671-119.551zM255.843 176.305V221.716h109.688l.911-10.207 2.069-23.021 1.086-12.183z"/></g></g></svg><svg id="youtube" data-name="Layer 1" width="36.75" height="44" viewBox="-1 -1 36.75 44" x="162.13" y="132"><defs><style>.lcls-1{fill:#fff}</style></defs><title>youtube</title><path class="lcls-1" d="M22.13 29.15v5q0 1.57-.91 1.57a1.5 1.5 0 0 1-1.06-.52v-7.11a1.5 1.5 0 0 1 1.06-.54q.91 0 .91 1.6zm7.92 0v1.08h-2.1v-1.06q0-1.59 1.06-1.59t1 1.59zM7.42 24h2.5v-2.14h-7.3v2.2h2.46V37.4h2.34V24zm6.75 13.4h2.09V25.82h-2.09v8.86a1.86 1.86 0 0 1-1.31 1 .48.48 0 0 1-.49-.47 6.52 6.52 0 0 1 0-.82v-8.57h-2.14V35a5.79 5.79 0 0 0 .19 1.71 1.26 1.26 0 0 0 1.36.87 3.43 3.43 0 0 0 2.39-1.43v1.25zm10.05-3.47v-4.6A8.33 8.33 0 0 0 24 27a1.63 1.63 0 0 0-1.67-1.31A2.82 2.82 0 0 0 20.16 27v-5.1h-2.08v15.5h2.09v-1.13a2.91 2.91 0 0 0 2.18 1.31A1.62 1.62 0 0 0 24 36.27a8.61 8.61 0 0 0 .22-2.35zm7.92-.24v-.3H30a11.6 11.6 0 0 1 0 1.43.9.9 0 0 1-.94.85q-1.08 0-1.08-1.61V32h4.19v-2.41a4.65 4.65 0 0 0-.66-2.72 3.2 3.2 0 0 0-5 0 4.52 4.52 0 0 0-.66 2.72v4.05a4.4 4.4 0 0 0 .66 2.72 3 3 0 0 0 2.49 1.2 2.9 2.9 0 0 0 3-2.51 10.31 10.31 0 0 0 .09-1.36zM17.89 12.3V7.38q0-1.61-1-1.61t-1 1.61v4.92q0 1.64 1 1.64t1-1.64zm16.85 17.6a40.6 40.6 0 0 1-.61 8.2 4.45 4.45 0 0 1-1.36 2.32 4.1 4.1 0 0 1-2.39 1.08 125.31 125.31 0 0 1-13 .49 125.31 125.31 0 0 1-13-.49A4.15 4.15 0 0 1 2 40.42 4.28 4.28 0 0 1 .63 38.1 39.76 39.76 0 0 1 0 29.9a40.6 40.6 0 0 1 .61-8.2A4.45 4.45 0 0 1 2 19.37a4.25 4.25 0 0 1 2.41-1.1q4.29-.47 13-.47t13 .47a4.4 4.4 0 0 1 3.75 3.42 39.76 39.76 0 0 1 .58 8.21zM11.35 0h2.39l-2.83 9.35v6.35H8.57V9.35a39.68 39.68 0 0 0-1.43-5Q6.27 2 5.61 0H8.1l1.67 6.16zM20 7.8v4.1a4.59 4.59 0 0 1-.66 2.76 2.88 2.88 0 0 1-2.49 1.19 2.9 2.9 0 0 1-2.46-1.19 4.68 4.68 0 0 1-.66-2.76V7.8a4.59 4.59 0 0 1 .66-2.74 2.9 2.9 0 0 1 2.46-1.19 2.88 2.88 0 0 1 2.49 1.19A4.59 4.59 0 0 1 20 7.8zM27.87 4v11.7h-2.13v-1.27a3.37 3.37 0 0 1-2.41 1.45A1.31 1.31 0 0 1 22 15a6 6 0 0 1-.19-1.76V4h2.13v8.6a6.14 6.14 0 0 0 0 .82.49.49 0 0 0 .47.52 1.87 1.87 0 0 0 1.31-1V4h2.16z"/></svg></svg>