<?xml version="1.0" encoding="UTF-8" standalone="no"?>
<svg
   xmlns:dc="http://purl.org/dc/elements/1.1/"
   xmlns:cc="http://creativecommons.org/ns#"
   xmlns:rdf="http://www.w3.org/1999/02/22-rdf-syntax-ns#"
   xmlns:svg="http://www.w3.org/2000/svg"
   xmlns="http://www.w3.org/2000/svg"
   xmlns:xlink="http://www.w3.org/1999/xlink"
   xmlns:sodipodi="http://sodipodi.sourceforge.net/DTD/sodipodi-0.dtd"
   xmlns:inkscape="http://www.inkscape.org/namespaces/inkscape"
   enable-background="new 0 0 455 282"
   id="Layer_1"
   version="1.1"
   viewBox="0 0 84 64"
   xml:space="preserve"
   inkscape:version="0.91 r13725"
   sodipodi:docname="fire.svg"
   width="84"
   height="64"><metadata
     id="metadata88"><rdf:RDF><cc:Work
         rdf:about=""><dc:format>image/svg+xml</dc:format><dc:type
           rdf:resource="http://purl.org/dc/dcmitype/StillImage" /><dc:title></dc:title></cc:Work></rdf:RDF></metadata><defs
     id="defs86" /><sodipodi:namedview
     pagecolor="#ffffff"
     bordercolor="#666666"
     borderopacity="1"
     objecttolerance="10"
     gridtolerance="10"
     guidetolerance="10"
     inkscape:pageopacity="0"
     inkscape:pageshadow="2"
     inkscape:window-width="1535"
     inkscape:window-height="876"
     id="namedview84"
     showgrid="false"
     fit-margin-top="0"
     fit-margin-left="0"
     fit-margin-right="0"
     fit-margin-bottom="0"
     inkscape:zoom="0.7956044"
     inkscape:cx="220.482"
     inkscape:cy="136.337"
     inkscape:window-x="65"
     inkscape:window-y="24"
     inkscape:window-maximized="1"
     inkscape:current-layer="Layer_1" /><g
     id="g3"
     transform="matrix(0.18986827,0,0,0.23620363,-1.3324955,-1.5080065)"><g
       id="g5"><path
         d="m 225.686,277.337 c -1.46,0 -2.913,-0.382 -4.19,-1.121 l -13.34,-7.892 c -1.991,-1.115 -1.018,-1.509 -0.362,-1.738 2.658,-0.922 3.195,-1.135 6.031,-2.744 0.295,-0.166 0.687,-0.103 0.992,0.076 l 10.248,6.084 c 0.372,0.206 0.896,0.206 1.238,0 l 39.953,-23.061 c 0.372,-0.212 0.61,-0.64 0.61,-1.081 l 0,-46.108 c 0,-0.451 -0.239,-0.872 -0.62,-1.101 L 226.31,175.61 c -0.368,-0.216 -0.859,-0.216 -1.231,0 l -39.927,23.047 c -0.388,0.222 -0.634,0.657 -0.634,1.095 l 0,46.108 c 0,0.441 0.245,0.859 0.63,1.068 l 10.945,6.324 c 5.938,2.969 9.574,-0.528 9.574,-4.041 l 0,-45.524 c 0,-0.643 0.518,-1.151 1.161,-1.151 l 5.066,0 c 0.634,0 1.158,0.508 1.158,1.151 l 0,45.523 c 0,7.926 -4.316,12.471 -11.83,12.471 -2.309,0 -4.127,0 -9.203,-2.501 l -10.477,-6.031 c -2.588,-1.496 -4.19,-4.293 -4.19,-7.289 l 0,-46.108 c 0,-2.996 1.602,-5.793 4.19,-7.282 l 39.953,-23.087 c 2.528,-1.43 5.889,-1.43 8.397,0 l 39.95,23.087 c 2.588,1.496 4.197,4.286 4.197,7.282 l 0,46.108 c 0,2.996 -1.609,5.782 -4.197,7.289 l -39.95,23.067 c -1.277,0.739 -2.726,1.121 -4.206,1.121 z"
         id="path7"
         inkscape:connector-curvature="0"
         style="fill:#699f63" /><path
         d="m 238.027,245.571 c -17.483,0 -21.146,-8.025 -21.146,-14.756 0,-0.64 0.514,-1.151 1.155,-1.151 l 5.165,0 c 0.577,0 1.058,0.415 1.148,0.979 0.78,5.258 3.105,7.912 13.678,7.912 8.417,0 12,-1.904 12,-6.37 0,-2.574 -1.015,-4.485 -14.096,-5.766 -10.931,-1.081 -17.693,-3.497 -17.693,-12.242 0,-8.062 6.794,-12.869 18.187,-12.869 12.799,0 19.132,4.442 19.935,13.974 0.03,0.328 -0.086,0.644 -0.305,0.889 -0.219,0.229 -0.524,0.368 -0.846,0.368 l -5.185,0 c -0.537,0 -1.012,-0.382 -1.121,-0.902 -1.244,-5.534 -4.27,-7.302 -12.477,-7.302 -9.19,0 -10.258,3.202 -10.258,5.6 0,2.906 1.261,3.752 13.669,5.394 12.278,1.622 18.11,3.921 18.11,12.551 -10e-4,8.705 -7.26,13.691 -19.92,13.691 z"
         id="path9"
         inkscape:connector-curvature="0"
         style="fill:#699f63" /></g><g
       id="g11"><path
         d="m 295.638,197.216 c 0,4.237 -3.464,7.7 -7.7,7.7 -4.197,0 -7.7,-3.422 -7.7,-7.7 0,-4.359 3.586,-7.702 7.7,-7.702 4.157,0 7.7,3.342 7.7,7.702 z m -14.156,-0.022 c 0,3.586 2.893,6.479 6.436,6.479 3.586,0 6.479,-2.954 6.479,-6.479 0,-3.585 -2.932,-6.436 -6.479,-6.436 -3.503,0 -6.436,2.81 -6.436,6.436 z m 3.563,-4.298 2.976,0 c 1.018,0 3.016,0 3.016,2.283 0,1.589 -1.018,1.914 -1.632,2.118 1.184,0.082 1.264,0.856 1.426,1.956 0.083,0.692 0.206,1.875 0.448,2.281 l -1.831,0 c -0.043,-0.406 -0.328,-2.608 -0.328,-2.729 -0.119,-0.49 -0.285,-0.733 -0.896,-0.733 l -1.506,0 0,3.462 -1.672,0 0,-8.638 -10e-4,0 z m 1.632,3.789 1.344,0 c 1.098,0 1.304,-0.773 1.304,-1.221 0,-1.183 -0.816,-1.183 -1.264,-1.183 l -1.383,0 -10e-4,2.404 0,0 z"
         id="path13"
         inkscape:connector-curvature="0"
         style="fill:#699f63" /></g><path
       d="m 101.964,96.943 c 0,-1.841 -0.969,-3.533 -2.558,-4.446 L 57.047,68.119 c -0.716,-0.421 -1.52,-0.64 -2.332,-0.674 -0.073,0 -0.378,0 -0.438,0 -0.81,0.033 -1.612,0.252 -2.339,0.674 L 9.579,92.497 C 8,93.409 7.018,95.101 7.018,96.943 l 0.093,65.641 c 0,0.912 0.474,1.762 1.277,2.21 0.786,0.471 1.758,0.471 2.541,0 l 25.174,-14.415 c 1.592,-0.945 2.561,-2.614 2.561,-4.439 l 0,-30.668 c 0,-1.828 0.969,-3.52 2.554,-4.429 l 10.719,-6.174 c 0.799,-0.461 1.672,-0.687 2.565,-0.687 0.872,0 1.768,0.226 2.544,0.687 l 10.716,6.174 c 1.586,0.909 2.558,2.601 2.558,4.429 l 0,30.668 c 0,1.825 0.982,3.504 2.565,4.439 l 25.167,14.415 c 0.79,0.471 1.775,0.471 2.558,0 0.78,-0.448 1.271,-1.297 1.271,-2.21 l 0.083,-65.641 z"
       id="path15"
       inkscape:connector-curvature="0"
       style="fill:#333333" /><path
       d="m 305.781,6.708 c -0.793,-0.441 -1.76,-0.431 -2.543,0.028 -0.781,0.46 -1.262,1.299 -1.262,2.206 l 0,65.006 c 0,0.639 -0.342,1.231 -0.894,1.551 -0.554,0.32 -1.238,0.32 -1.792,0 l -10.609,-6.113 c -1.583,-0.912 -3.53,-0.91 -5.112,0.002 l -42.376,24.455 c -1.584,0.914 -2.559,2.603 -2.559,4.431 l 0,48.921 c 0,1.828 0.975,3.517 2.558,4.432 l 42.374,24.474 c 1.584,0.914 3.535,0.914 5.119,0 l 42.38,-24.474 c 1.583,-0.916 2.558,-2.604 2.558,-4.432 l 0,-121.947 c 0,-1.855 -1.004,-3.565 -2.624,-4.469 L 305.781,6.708 Z m -3.932,124.414 c 0,0.456 -0.244,0.879 -0.64,1.106 l -14.549,8.387 c -0.395,0.227 -0.882,0.227 -1.277,0 l -14.55,-8.387 c -0.396,-0.227 -0.64,-0.65 -0.64,-1.106 l 0,-16.8 c 0,-0.456 0.244,-0.879 0.639,-1.108 l 14.549,-8.403 c 0.396,-0.229 0.884,-0.229 1.28,0 l 14.549,8.403 c 0.395,0.229 0.639,0.652 0.639,1.108 l 0,16.8 z"
       id="path17"
       inkscape:connector-curvature="0"
       style="fill:#333333" /><g
       id="g19"><path
         d="m 446.884,113.882 c 1.576,-0.916 2.546,-2.601 2.546,-4.424 l 0,-11.855 c 0,-1.823 -0.97,-3.51 -2.548,-4.426 L 404.779,68.731 c -1.584,-0.921 -3.54,-0.922 -5.127,-0.007 l -42.36,24.455 c -1.583,0.914 -2.558,2.603 -2.558,4.431 l 0,48.908 c 0,1.84 0.987,3.536 2.585,4.446 l 42.097,23.988 c 1.553,0.886 3.455,0.896 5.018,0.028 l 25.462,-14.153 c 0.808,-0.449 1.311,-1.297 1.315,-2.219 0.007,-0.922 -0.484,-1.776 -1.284,-2.236 l -42.629,-24.467 c -0.796,-0.456 -1.285,-1.304 -1.285,-2.22 l 0,-15.327 c 0,-0.914 0.488,-1.76 1.28,-2.216 l 13.267,-7.649 c 0.79,-0.456 1.765,-0.456 2.554,0 l 13.274,7.649 c 0.793,0.456 1.28,1.302 1.28,2.216 l 0,12.059 c 0,0.916 0.49,1.762 1.282,2.218 0.793,0.458 1.77,0.454 2.561,-0.005 l 25.373,-14.748 z"
         id="path21"
         inkscape:connector-curvature="0"
         style="fill:#333333" /><path
         d="m 401.591,111.591 c 0.304,-0.176 0.678,-0.176 0.982,0 l 8.131,4.691 c 0.304,0.176 0.491,0.499 0.491,0.851 l 0,9.389 c 0,0.352 -0.187,0.675 -0.491,0.851 l -8.131,4.691 c -0.304,0.176 -0.678,0.176 -0.982,0 l -8.125,-4.691 c -0.304,-0.176 -0.491,-0.499 -0.491,-0.851 l 0,-9.389 c 0,-0.352 0.187,-0.675 0.491,-0.851 l 8.125,-4.691 z"
         id="path23"
         inkscape:connector-curvature="0"
         style="fill:#699f63" /></g><g
       id="g25"><linearGradient
         gradientTransform="matrix(1,0,0,-1,0,284.11)"
         gradientUnits="userSpaceOnUse"
         id="XMLID_2_"
         x1="123.196"
         x2="217.39999"
         y1="162.1965"
         y2="162.1965"><stop
           offset="0.0053"
           style="stop-color:#000000"
           id="stop28" /><stop
           offset="0.1938"
           style="stop-color:#171717"
           id="stop30" /><stop
           offset="0.5423"
           style="stop-color:#3D3D3D"
           id="stop32" /><stop
           offset="0.8235"
           style="stop-color:#545454"
           id="stop34" /><stop
           offset="1"
           style="stop-color:#5C5C5C"
           id="stop36" /></linearGradient><path
         d="m 167.756,68.979 c 1.57,-0.907 3.505,-0.907 5.075,0 l 42.03,24.255 c 1.572,0.907 2.539,2.582 2.539,4.397 l 0,48.546 c 0,1.813 -0.967,3.489 -2.538,4.397 l -42.03,24.274 c -1.571,0.907 -3.507,0.907 -5.078,0 l -42.021,-24.274 c -1.57,-0.908 -2.537,-2.583 -2.537,-4.397 l 0,-48.548 c 0,-1.813 0.968,-3.489 2.539,-4.395 l 42.021,-24.255 z"
         id="XMLID_67_"
         style="fill:url(#XMLID_2_)"
         inkscape:connector-curvature="0" /><g
         id="g39"><g
           id="g41"><defs
             id="defs43"><path
               d="m 172.841,68.979 c -1.57,-0.907 -3.505,-0.907 -5.075,0 l -42.03,24.255 c -1.572,0.907 -2.539,2.582 -2.539,4.397 l 0,48.546 c 0,1.813 0.968,3.489 2.538,4.397 l 42.03,24.274 c 1.571,0.907 3.507,0.907 5.078,0 l 42.021,-24.274 c 1.57,-0.908 2.537,-2.583 2.537,-4.397 l 0,-48.548 c 0,-1.813 -0.967,-3.489 -2.539,-4.395 L 172.841,68.979 Z"
               id="SVGID_1_"
               inkscape:connector-curvature="0" /></defs><clipPath
             id="SVGID_2_"><use
               overflow="visible"
               xlink:href="#SVGID_1_"
               id="use47"
               style="overflow:visible"
               x="0"
               y="0"
               width="100%"
               height="100%" /></clipPath><g
             clip-path="url(#SVGID_2_)"
             id="g49"><path
               d="m 167.707,68.979 -42.07,24.255 C 124.066,94.141 123,95.816 123,97.629 l 0,48.548 c 0,1.178 0.444,2.293 1.182,3.182 l 47.297,-80.907 c -1.263,-0.31 -2.622,-0.138 -3.772,0.527 z"
               id="path51"
               inkscape:connector-curvature="0"
               style="fill:none" /><path
               d="m 171.746,175.275 c 0.337,-0.109 0.669,-0.245 0.986,-0.428 l 41.93,-24.274 c 1.57,-0.908 2.337,-2.583 2.337,-4.397 l 0,-48.546 c 0,-1.218 -0.36,-2.367 -1.066,-3.269 l -44.187,80.914 z"
               id="path53"
               inkscape:connector-curvature="0"
               style="fill:none" /><path
               d="M 214.649,93.233 172.806,68.978 c -0.419,-0.242 -0.867,-0.414 -1.327,-0.527 l -47.297,80.907 c 0.398,0.48 0.878,0.896 1.428,1.214 l 42.094,24.274 c 1.255,0.724 2.707,0.86 4.042,0.428 L 215.934,94.36 c -0.346,-0.441 -0.769,-0.829 -1.285,-1.127 z"
               enable-background="new    "
               id="path55"
               inkscape:connector-curvature="0"
               style="opacity:0.66000001;fill:#b4b4b4" /></g></g><g
           id="g57"><defs
             id="defs59"><path
               d="m 172.841,68.979 c -1.57,-0.907 -3.505,-0.907 -5.075,0 l -42.03,24.255 c -1.572,0.907 -2.539,2.582 -2.539,4.397 l 0,48.546 c 0,1.813 0.968,3.489 2.538,4.397 l 42.03,24.274 c 1.571,0.907 3.507,0.907 5.078,0 l 42.021,-24.274 c 1.57,-0.908 2.537,-2.583 2.537,-4.397 l 0,-48.548 c 0,-1.813 -0.967,-3.489 -2.539,-4.395 L 172.841,68.979 Z"
               id="SVGID_3_"
               inkscape:connector-curvature="0" /></defs><clipPath
             id="SVGID_4_"><use
               overflow="visible"
               xlink:href="#SVGID_3_"
               id="use63"
               style="overflow:visible"
               x="0"
               y="0"
               width="100%"
               height="100%" /></clipPath><g
             clip-path="url(#SVGID_4_)"
             id="g65"><path
               d="m 126.114,92.958 -0.477,0.275 C 124.066,94.14 123,95.815 123,97.628 l 0,48.548 c 0,1.813 1.041,3.489 2.61,4.397 l 42.094,24.274 c 1.134,0.655 2.431,0.829 3.656,0.539 L 126.114,92.958 Z"
               id="path67"
               inkscape:connector-curvature="0"
               style="fill:none" /><path
               d="m 217,97.63 c 0,-1.815 -0.78,-3.49 -2.351,-4.397 L 172.806,68.978 c -0.37,-0.214 -0.763,-0.373 -1.166,-0.486 L 217,145.986 217,97.63 Z"
               id="path69"
               inkscape:connector-curvature="0"
               style="fill:none" /><linearGradient
               gradientTransform="matrix(1,0,0,-1,0,284.11)"
               gradientUnits="userSpaceOnUse"
               id="SVGID_5_"
               x1="122.545"
               x2="219.72279"
               y1="162.2655"
               y2="162.2655"><stop
                 offset="0"
                 style="stop-color:#5C5C5C"
                 id="stop72" /><stop
                 offset="0.1765"
                 style="stop-color:#545454"
                 id="stop74" /><stop
                 offset="0.4577"
                 style="stop-color:#3D3D3D"
                 id="stop76" /><stop
                 offset="0.8062"
                 style="stop-color:#171717"
                 id="stop78" /><stop
                 offset="0.9947"
                 style="stop-color:#000000"
                 id="stop80" /></linearGradient><path
               d="m 172.732,174.847 41.93,-24.274 c 1.57,-0.908 2.337,-2.583 2.337,-4.397 l 0,-0.19 -45.36,-77.493 c -1.307,-0.366 -2.733,-0.207 -3.933,0.486 l -41.593,23.98 45.246,82.428 c 0.473,-0.113 0.936,-0.287 1.373,-0.54 z"
               id="path82"
               style="fill:url(#SVGID_5_)"
               inkscape:connector-curvature="0" /></g></g></g></g></g></svg>