<?xml version="1.0" encoding="UTF-8" standalone="no"?>
<!-- Generator: Adobe Illustrator 16.0.0, SVG Export Plug-In . SVG Version: 6.00 Build 0)  -->

<svg
   xmlns:dc="http://purl.org/dc/elements/1.1/"
   xmlns:cc="http://creativecommons.org/ns#"
   xmlns:rdf="http://www.w3.org/1999/02/22-rdf-syntax-ns#"
   xmlns:svg="http://www.w3.org/2000/svg"
   xmlns="http://www.w3.org/2000/svg"
   xmlns:sodipodi="http://sodipodi.sourceforge.net/DTD/sodipodi-0.dtd"
   xmlns:inkscape="http://www.inkscape.org/namespaces/inkscape"
   version="1.1"
   id="Capa_1"
   x="0px"
   y="0px"
   width="50.117001"
   height="47.889732"
   viewBox="0 0 50.117 47.889732"
   xml:space="preserve"
   inkscape:version="0.91 r13725"
   sodipodi:docname="linkedin.svg"><metadata
     id="metadata40"><rdf:RDF><cc:Work
         rdf:about=""><dc:format>image/svg+xml</dc:format><dc:type
           rdf:resource="http://purl.org/dc/dcmitype/StillImage" /><dc:title></dc:title></cc:Work></rdf:RDF></metadata><defs
     id="defs38" /><sodipodi:namedview
     pagecolor="#ffffff"
     bordercolor="#666666"
     borderopacity="1"
     objecttolerance="10"
     gridtolerance="10"
     guidetolerance="10"
     inkscape:pageopacity="0"
     inkscape:pageshadow="2"
     inkscape:window-width="1535"
     inkscape:window-height="876"
     id="namedview36"
     showgrid="false"
     fit-margin-top="0"
     fit-margin-left="0"
     fit-margin-right="0"
     fit-margin-bottom="0"
     inkscape:zoom="14.512506"
     inkscape:cx="25.0585"
     inkscape:cy="23.944867"
     inkscape:window-x="65"
     inkscape:window-y="24"
     inkscape:window-maximized="1"
     inkscape:current-layer="Capa_1" /><g
     id="g3"
     transform="matrix(0.11651946,0,0,0.11651946,0,-1.113693)"><path
       id="LinkedIn"
       d="m 430.117,261.543 0,159.017 -92.188,0 0,-148.367 c 0,-37.271 -13.334,-62.707 -46.703,-62.707 -25.473,0 -40.632,17.142 -47.301,33.724 -2.432,5.928 -3.058,14.179 -3.058,22.477 l 0,154.873 -92.219,0 c 0,0 1.242,-251.285 0,-277.32 l 92.21,0 0,39.309 c -0.187,0.294 -0.43,0.611 -0.606,0.896 l 0.606,0 0,-0.896 c 12.251,-18.869 34.13,-45.824 83.102,-45.824 60.673,-0.001 106.157,39.636 106.157,124.818 z M 52.183,9.558 C 20.635,9.558 0,30.251 0,57.463 c 0,26.619 20.038,47.94 50.959,47.94 l 0.616,0 c 32.159,0 52.159,-21.317 52.159,-47.94 C 103.128,30.251 83.734,9.558 52.183,9.558 Z M 5.477,420.56 l 92.184,0 0,-277.32 -92.184,0 0,277.32 z"
       inkscape:connector-curvature="0" /></g><g
     id="g6"
     transform="matrix(0.11651946,0,0,0.11651946,0,-1.113693)" /><g
     id="g8"
     transform="matrix(0.11651946,0,0,0.11651946,0,-1.113693)" /><g
     id="g10"
     transform="matrix(0.11651946,0,0,0.11651946,0,-1.113693)" /><g
     id="g12"
     transform="matrix(0.11651946,0,0,0.11651946,0,-1.113693)" /><g
     id="g14"
     transform="matrix(0.11651946,0,0,0.11651946,0,-1.113693)" /><g
     id="g16"
     transform="matrix(0.11651946,0,0,0.11651946,0,-1.113693)" /><g
     id="g18"
     transform="matrix(0.11651946,0,0,0.11651946,0,-1.113693)" /><g
     id="g20"
     transform="matrix(0.11651946,0,0,0.11651946,0,-1.113693)" /><g
     id="g22"
     transform="matrix(0.11651946,0,0,0.11651946,0,-1.113693)" /><g
     id="g24"
     transform="matrix(0.11651946,0,0,0.11651946,0,-1.113693)" /><g
     id="g26"
     transform="matrix(0.11651946,0,0,0.11651946,0,-1.113693)" /><g
     id="g28"
     transform="matrix(0.11651946,0,0,0.11651946,0,-1.113693)" /><g
     id="g30"
     transform="matrix(0.11651946,0,0,0.11651946,0,-1.113693)" /><g
     id="g32"
     transform="matrix(0.11651946,0,0,0.11651946,0,-1.113693)" /><g
     id="g34"
     transform="matrix(0.11651946,0,0,0.11651946,0,-1.113693)" /><path
     style="fill:#ffffff;fill-opacity:1;stroke:#ffffff;stroke-width:0.13781218"
     d="m 0.74843249,31.731253 0,-16.055118 5.30576881,0 5.3057687,0 0,16.055118 0,16.055119 -5.3057687,0 -5.30576881,0 0,-16.055119 z"
     id="path4189"
     inkscape:connector-curvature="0" /><path
     style="fill:#ffffff;fill-opacity:1;stroke:#ffffff;stroke-width:0.13781218"
     d="m 17.423706,31.731253 0,-16.055118 5.312052,0 5.312052,0 -0.04074,2.342984 c -0.0224,1.288641 -0.0042,2.342904 0.0405,2.342807 0.04468,-9.7e-5 0.145803,-0.141881 0.224716,-0.315076 0.254169,-0.55784 1.539635,-2.063506 2.338155,-2.73868 2.172935,-1.837285 5.350188,-2.711212 8.529853,-2.346197 1.805229,0.207235 2.789962,0.472843 4.12319,1.112133 3.528431,1.691902 5.537588,4.5973 6.491136,9.386693 0.203432,1.021774 0.24061,2.522471 0.291056,11.748488 l 0.05783,10.577085 -5.314931,0 -5.31493,0 0,-8.858047 c 0,-5.254288 -0.05797,-9.333145 -0.142488,-10.025836 -0.3798,-3.112726 -1.55149,-4.79655 -3.790641,-5.447489 -1.05119,-0.305589 -2.728764,-0.214276 -3.828044,0.208366 -1.173176,0.451054 -2.432428,1.677809 -3.092059,3.012262 l -0.516273,1.044436 -0.03875,10.033154 -0.03875,10.033154 -5.30147,0 -5.30147,0 0,-16.055119 z"
     id="path4191"
     inkscape:connector-curvature="0" /><path
     style="fill:#ffffff;fill-opacity:1;stroke:#ffffff;stroke-width:0.13781218"
     d="M 4.8827978,11.033125 C 4.1429596,10.909279 3.1307105,10.526543 2.5093456,10.135712 1.6413868,9.5897755 1.0724287,8.9174646 0.55585888,7.8273687 0.16782855,7.0085243 0.12907188,6.8039606 0.13686363,5.6158462 0.14763603,3.9732281 0.48463212,3.032642 1.4349079,1.9928888 2.6972915,0.61163997 4.2613102,0.03346037 6.4696297,0.13167475 7.6682937,0.18498499 7.9996733,0.25497184 8.7780162,0.61920246 10.500116,1.42507 11.581556,2.8405224 11.9375,4.7545201 12.34047,6.9213883 11.19313,9.2484982 9.1825761,10.342234 8.0557641,10.955217 6.1993384,11.253509 4.8827978,11.033125 Z"
     id="path4193"
     inkscape:connector-curvature="0" /></svg>